HIERARCHY
ROOT Hips
{
  OFFSET 2.26061 22.2878 23.7974
  CHANNELS 6 Xposition Yposition Zposition Zrotation Xrotation Yrotation
  JOINT LeftUpLeg
  {
    OFFSET 8.64259 1.95398 -2.38835
    CHANNELS 3 Zrotation Xrotation Yrotation
    JOINT LeftLeg
    {
      OFFSET 43.7702 0 0
      CHANNELS 3 Zrotation Xrotation Yrotation
      JOINT LeftFoot
      {
        OFFSET 40.6238 0 0
        CHANNELS 3 Zrotation Xrotation Yrotation
        JOINT LeftToeBase
        {
          OFFSET 12.7242 0 0
          CHANNELS 3 Zrotation Xrotation Yrotation
          End Site
          {
            OFFSET 0 0 0
          }
        }
      }
    }
  }
  JOINT RightUpLeg
  {
    OFFSET -8.2249 1.95398 -2.59336
    CHANNELS 3 Zrotation Xrotation Yrotation
    JOINT RightLeg
    {
      OFFSET 43.5653 0 0
      CHANNELS 3 Zrotation Xrotation Yrotation
      JOINT RightFoot
      {
        OFFSET 40.6238 0 0
        CHANNELS 3 Zrotation Xrotation Yrotation
        JOINT RightToeBase
        {
          OFFSET 12.7242 0 0
          CHANNELS 3 Zrotation Xrotation Yrotation
          End Site
          {
            OFFSET 0 0 0
          }
        }
      }
    }
  }
  JOINT Spine
  {
    OFFSET 0.165834 0.87714 6.61349
    CHANNELS 3 Zrotation Xrotation Yrotation
    JOINT Spine1
    {
      OFFSET 7.38963 1.71661e-005 0
      CHANNELS 3 Zrotation Xrotation Yrotation
      JOINT Spine2
      {
        OFFSET 11.9445 1.14441e-005 0
        CHANNELS 3 Zrotation Xrotation Yrotation
        JOINT Spine3
        {
          OFFSET 14.7254 4.19617e-005 0
          CHANNELS 3 Zrotation Xrotation Yrotation
          JOINT Spine4
          {
            OFFSET 10.9679 0 0
            CHANNELS 3 Zrotation Xrotation Yrotation
            JOINT RightShoulder
            {
              OFFSET 2.46616 -1.6653 3.69651
              CHANNELS 3 Zrotation Xrotation Yrotation
              JOINT RightArm
              {
                OFFSET 13.0012 0 0
                CHANNELS 3 Zrotation Xrotation Yrotation
                JOINT RightForeArm
                {
                  OFFSET 28.7848 1.52588e-005 0
                  CHANNELS 3 Zrotation Xrotation Yrotation
                  JOINT RightHand
                  {
                    OFFSET 26.5688 1.52588e-005 0
                    CHANNELS 3 Zrotation Xrotation Yrotation
                    End Site
                    {
                      OFFSET 0 0 0
                    }
                  }
                }
              }
            }
            JOINT LeftShoulder
            {
              OFFSET 2.38034 -1.29275 -3.7523
              CHANNELS 3 Zrotation Xrotation Yrotation
              JOINT LeftArm
              {
                OFFSET 16.3182 6.10351e-005 0
                CHANNELS 3 Zrotation Xrotation Yrotation
                JOINT LeftForeArm
                {
                  OFFSET 27.0901 0 0
                  CHANNELS 3 Zrotation Xrotation Yrotation
                  JOINT LeftHand
                  {
                    OFFSET 24.5451 1.52588e-005 0
                    CHANNELS 3 Zrotation Xrotation Yrotation
                    End Site
                    {
                      OFFSET 0 0 0
                    }
                  }
                }
              }
            }
            JOINT Neck
            {
              OFFSET 5.0226 -0.0266342 0
              CHANNELS 3 Zrotation Xrotation Yrotation
              JOINT Head
              {
                OFFSET 6.69363 2.86102e-005 0
                CHANNELS 3 Zrotation Xrotation Yrotation
                End Site
                {
                  OFFSET 0 0 0
                }
              }
            }
          }
        }
      }
    }
  }
}
MOTION
Frames:	6
Frame Time:	0.0416667
24.4138 80.7 -269.854 65.5959 -19.4685 84.9457 167.029 51.5319 93.7028 -92.3857 22.462 42.9285 139.881 36.957 -53.2832 15.0679 -14.8706 11.8969 -152.911 25.3143 141.973 35.9181 22.311 -63.0206 -7.43371 9.8452 21.9198 84.5724 -17.2046 -43.6138 -7.41381 6.16776 -93.3004 14.344 -16.3026 -4.3535 2.77361 -16.4778 -3.61322 -20.3807 -14.2312 -9.13291 -0.368017 -14.2312 -9.13292 95.0354 -52.7705 -92.6915 28.1207 -12.7298 41.3098 -33.2309 39.0118 -125.762 -3.39959 2.55147 -70.1134 -99.7746 -50.1145 64.3734 -27.6891 15.8786 21.0595 14.7862 -3.36001 -89.8785 36.1738 2.71878 3.65252 -3.17073 5.25642 1.43066 21.3871 5.96166 4.09292 
23.7101 83.4823 -264.511 63.9748 -20.9634 84.2648 155.489 41.2685 110.946 -93.9711 41.5992 42.7571 119.911 36.6732 -22.8104 17.7678 -10.1903 5.19561 -167.898 34.1623 131.012 -11.1794 51.9116 -23.4946 21.2526 16.5195 20.2388 88.8663 -10.7997 -27.9 -6.86112 6.06435 -93.4257 14.5246 -15.2699 -4.71533 2.93953 -15.4621 -4.02405 -20.1045 -13.1415 -9.14599 -0.0918408 -13.1415 -9.146 93.9616 -51.3831 -94.5119 29.2172 -9.22142 37.9151 -28.0803 33.3429 -128.235 -0.524344 0.476696 -68.2181 -100.725 -51.9484 63.6822 -27.7355 15.3477 22.2331 16.9127 0.88222 -82.0598 37.1098 3.32218 5.1189 10.5294 2.85513 3.39301 5.56148 2.38073 3.25521 
22.6677 85.5559 -261.07 62.1407 -26.4646 83.0177 153.906 39.6951 115.02 -87.563 38.3807 31.8853 86.8671 19.7705 -0.16228 41.6435 8.8104 -12.3845 -165.847 21.7253 127.94 -0.0439573 56.5713 -10.1663 29.2138 11.1916 12.0715 83.0366 -2.98889 -13.4801 -6.05633 6.02892 -93.324 14.6092 -13.6272 -4.7234 3.00472 -13.8214 -4.10908 -19.9098 -11.5755 -8.63804 0.102879 -11.5755 -8.63805 93.3507 -49.3647 -95.7789 32.7929 -7.12722 38.2369 -18.6032 23.5552 -132.924 8.5798 -4.45986 -54.9218 -99.973 -53.0519 65.1391 -29.1097 15.1135 27.5275 14.2331 0.617288 -79.6256 37.2376 3.25255 4.87699 10.9694 2.29051 4.40319 4.88603 1.4246 1.26731 
21.1412 89.2719 -258.173 67.9688 -34.6466 86.5347 159.243 43.9922 106.22 -85.2036 37.6533 25.1731 71.1782 8.37685 9.89536 44.0406 12.2 3.19029 -162.367 9.73228 129.361 3.38635 58.7846 -3.52552 37.5266 7.71698 7.28833 73.4242 1.21609 -3.43235 -5.23056 6.69239 -92.7831 13.3179 -11.7202 -4.0964 1.69566 -11.8889 -3.57032 -21.1165 -9.94608 -7.45284 -1.10388 -9.94607 -7.45283 93.8066 -47.7503 -95.341 35.6455 -7.98854 33.934 -12.1349 13.9687 -128.693 45.6826 -1.85587 -10.3508 -97.487 -52.0968 68.3408 -32.5431 15.9911 33.4841 12.4185 -0.228774 -80.8059 37.9141 3.10569 4.32553 9.04826 0.798964 4.44285 6.35286 -0.135636 -0.758635 
20.0446 92.0096 -255.048 77.5891 -41.4071 91.6392 170.078 43.7787 95.0147 -73.6568 42.7258 18.6254 66.0786 4.7325 3.80547 41.2418 11.4858 19.7823 -161.58 -2.05625 130.519 -3.23445 56.8948 3.85359 47.1041 6.10954 4.79741 48.8085 1.70652 6.30205 -4.54377 7.44059 -92.059 11.8848 -10.0036 -3.03503 0.250199 -10.1273 -2.58775 -22.5024 -8.62737 -5.91798 -2.48978 -8.62738 -5.91799 94.1547 -46.369 -95.0183 28.9948 -19.1434 8.43438 -3.20387 4.9295 -106.998 81.7363 12.1674 8.68719 -95.51 -49.9445 70.5387 -36.2333 15.6898 39.0528 12.7515 -1.01207 -83.0889 38.403 2.96926 3.85055 8.04044 -0.36039 4.25257 7.05905 -1.34232 -2.21055 
19.4821 93.9266 -250.536 87.7122 -48.0619 96.3259 -179.612 37.6868 86.8821 -53.332 52.9157 8.03991 54.616 -2.09678 2.02633 44.1876 14.616 19.074 -162.856 -16.187 127.075 -5.47963 42.6526 7.7203 39.3491 5.10627 5.01952 40.4161 0.645759 -1.13447 -3.84865 8.04428 -91.3765 10.7307 -8.29858 -1.97845 -0.914523 -8.37753 -1.60888 -23.613 -7.31892 -4.39227 -3.60037 -7.31892 -4.39227 93.9788 -44.7584 -95.5849 29.5594 -20.5879 9.01915 -10.8223 -0.801424 -99.7677 88.4387 5.78589 1.39059 -95.7306 -49.5195 70.0834 -37.9824 14.5308 42.4784 12.4747 -1.57971 -84.4385 37.1495 2.84651 3.83726 8.36526 -0.674407 5.85477 6.42733 -2.10073 -3.88729 
